{"accessors":[{"bufferView":0,"byteOffset":0,"componentType":5126,"count":254,"max":[0.11176,-0.07620394738858964,0.02],"min":[0.08635999999999999,-0.10159605261141037,0.006666666666666667],"type":"VEC3"},{"bufferView":0,"byteOffset":3048,"componentType":5126,"count":3044,"max":[0.11176,-0.07620394738858964,0.006666666666666667],"min":[0.08635999999999999,-0.10159605261141037,0.0],"type":"VEC3"},{"bufferView":0,"byteOffset":39576,"componentType":5126,"count":126,"max":[0.11176,-0.07620394738858964,0.02],"min":[0.08635999999999999,-0.10159605261141037,0.02],"type":"VEC3"},{"bufferView":0,"byteOffset":41088,"componentType":5126,"count":126,"max":[0.10509333333333332,-0.08286854193526175,0.0],"min":[0.09302666666666666,-0.09493145806473827,0.0],"type":"VEC3"},{"bufferView":0,"byteOffset":42600,"componentType":5126,"count":254,"max":[-0.08635999999999999,-0.07620394738858964,0.02],"min":[-0.11176,-0.10159605261141037,0.006666666666666667],"type":"VEC3"},{"bufferView":0,"byteOffset":45648,"componentType":5126,"count":3044,"max":[-0.08635999999999999,-0.07620394738858964,0.006666666666666667],"min":[-0.11176,-0.10159605261141037,0.0],"type":"VEC3"},{"bufferView":0,"byteOffset":82176,"componentType":5126,"count":126,"max":[-0.08635999999999999,-0.07620394738858964,0.02],"min":[-0.11176,-0.10159605261141037,0.02],"type":"VEC3"},{"bufferView":0,"byteOffset":83688,"componentType":5126,"count":126,"max":[-0.09302666666666666,-0.08286854193526175,0.0],"min":[-0.10509333333333332,-0.09493145806473827,0.0],"type":"VEC3"},{"bufferView":1,"byteOffset":0,"componentType":5126,"count":254,"type":"VEC3"},{"bufferView":1,"byteOffset":3048,"componentType":5126,"count":3044,"type":"VEC3"},{"bufferView":1,"byteOffset":39576,"componentType":5126,"count":126,"type":"VEC3"},{"bufferView":1,"byteOffset":41088,"componentType":5126,"count":126,"type":"VEC3"},{"bufferView":1,"byteOffset":42600,"componentType":5126,"count":254,"type":"VEC3"},{"bufferView":1,"byteOffset":45648,"componentType":5126,"count":3044,"type":"VEC3"},{"bufferView":1,"byteOffset":82176,"componentType":5126,"count":126,"type":"VEC3"},{"bufferView":1,"byteOffset":83688,"componentType":5126,"count":126,"type":"VEC3"},{"bufferView":2,"byteOffset":0,"componentType":5123,"count":756,"type":"SCALAR"},{"bufferView":2,"byteOffset":1512,"componentType":5123,"count":17310,"type":"SCALAR"},{"bufferView":2,"byteOffset":36132,"componentType":5123,"count":372,"type":"SCALAR"},{"bufferView":2,"byteOffset":36876,"componentType":5123,"count":372,"type":"SCALAR"},{"bufferView":2,"byteOffset":37620,"componentType":5123,"count":756,"type":"SCALAR"},{"bufferView":2,"byteOffset":39132,"componentType":5123,"count":17310,"type":"SCALAR"},{"bufferView":2,"byteOffset":73752,"componentType":5123,"count":372,"type":"SCALAR"},{"bufferView":2,"byteOffset":74496,"componentType":5123,"count":372,"type":"SCALAR"}],"asset":{"generator":"Open CASCADE Technology 7.8 [dev.opencascade.org]","version":"2.0"},"bufferViews":[{"buffer":0,"byteLength":85200,"byteOffset":0,"byteStride":12,"target":34962},{"buffer":0,"byteLength":85200,"byteOffset":85200,"byteStride":12,"target":34962},{"buffer":0,"byteLength":75240,"byteOffset":170400,"target":34963}],"buffers":[{"byteLength":245640,"uri":"workboard01__part__feet.bin"}],"materials":[{"name":"mat_0","pbrMetallicRoughness":{"baseColorFactor":[0.30000001192092896,0.30000001192092896,0.30000001192092896,1.0]},"doubleSided":true}],"meshes":[{"name":"feet","primitives":[{"attributes":{"NORMAL":8,"POSITION":0},"indices":16,"material":0,"mode":4},{"attributes":{"NORMAL":9,"POSITION":1},"indices":17,"material":0,"mode":4},{"attributes":{"NORMAL":10,"POSITION":2},"indices":18,"material":0,"mode":4},{"attributes":{"NORMAL":11,"POSITION":3},"indices":19,"material":0,"mode":4},{"attributes":{"NORMAL":12,"POSITION":4},"indices":20,"material":0,"mode":4},{"attributes":{"NORMAL":13,"POSITION":5},"indices":21,"material":0,"mode":4},{"attributes":{"NORMAL":14,"POSITION":6},"indices":22,"material":0,"mode":4},{"attributes":{"NORMAL":15,"POSITION":7},"indices":23,"material":0,"mode":4}]}],"nodes":[{"rotation":[-0.7071067811865475,0.0,0.0,0.7071067811865475],"mesh":0,"name":"=>[0:1:1:2]"}],"scene":0,"scenes":[{"nodes":[0]}]}