{"accessors":[{"bufferView":0,"byteOffset":0,"componentType":5126,"count":4,"max":[-0.19812,0.12065000000000001,0.021587500000000003],"min":[-0.19812,-0.12065000000000001,0.0184125],"type":"VEC3"},{"bufferView":0,"byteOffset":48,"componentType":5126,"count":66,"max":[-0.19177,-0.12065000000000001,0.021587500000000003],"min":[-0.19812,-0.127,0.0184125],"type":"VEC3"},{"bufferView":0,"byteOffset":840,"componentType":5126,"count":66,"max":[-0.19177,0.12065000000000001,0.0184125],"min":[-0.19812,-0.12065000000000001,0.0120625],"type":"VEC3"},{"bufferView":0,"byteOffset":1632,"componentType":5126,"count":66,"max":[-0.19177,0.12065000000000001,0.0279375],"min":[-0.19812,-0.12065000000000001,0.021587500000000003],"type":"VEC3"},{"bufferView":0,"byteOffset":2424,"componentType":5126,"count":66,"max":[-0.19177,0.127,0.021587500000000003],"min":[-0.19812,0.12065000000000001,0.0184125],"type":"VEC3"},{"bufferView":0,"byteOffset":3216,"componentType":5126,"count":592,"max":[-0.19177,-0.12065000000000001,0.018412500000000002],"min":[-0.19812,-0.127,0.0120625],"type":"VEC3"},{"bufferView":0,"byteOffset":10320,"componentType":5126,"count":592,"max":[-0.19177,-0.12065000000000001,0.0279375],"min":[-0.19812,-0.127,0.0215875],"type":"VEC3"},{"bufferView":0,"byteOffset":17424,"componentType":5126,"count":4,"max":[0.19177000000000002,-0.127,0.021587500000000003],"min":[-0.19177,-0.127,0.0184125],"type":"VEC3"},{"bufferView":0,"byteOffset":17472,"componentType":5126,"count":256,"max":[0.19177000000000002,0.12065000000000001,0.0120625],"min":[-0.19177,-0.12065000000000001,0.0120625],"type":"VEC3"},{"bufferView":0,"byteOffset":20544,"componentType":5126,"count":592,"max":[-0.19177,0.127,0.018412500000000002],"min":[-0.19812,0.12065000000000001,0.0120625],"type":"VEC3"},{"bufferView":0,"byteOffset":27648,"componentType":5126,"count":4,"max":[0.19177000000000002,0.12065000000000001,0.0279375],"min":[-0.19177,-0.12065000000000001,0.0279375],"type":"VEC3"},{"bufferView":0,"byteOffset":27696,"componentType":5126,"count":592,"max":[-0.19177,0.127,0.0279375],"min":[-0.19812,0.12065000000000001,0.021587500000000003],"type":"VEC3"},{"bufferView":0,"byteOffset":34800,"componentType":5126,"count":4,"max":[0.19177000000000002,0.127,0.021587500000000003],"min":[-0.19177,0.127,0.0184125],"type":"VEC3"},{"bufferView":0,"byteOffset":34848,"componentType":5126,"count":66,"max":[0.19177000000000002,-0.12065000000000001,0.0184125],"min":[-0.19177,-0.127,0.0120625],"type":"VEC3"},{"bufferView":0,"byteOffset":35640,"componentType":5126,"count":66,"max":[0.19177000000000002,-0.12065000000000001,0.0279375],"min":[-0.19177,-0.127,0.021587500000000003],"type":"VEC3"},{"bufferView":0,"byteOffset":36432,"componentType":5126,"count":66,"max":[0.19812,-0.12065000000000001,0.021587500000000003],"min":[0.19177,-0.127,0.0184125],"type":"VEC3"},{"bufferView":0,"byteOffset":37224,"componentType":5126,"count":66,"max":[0.19177000000000002,0.127,0.0184125],"min":[-0.19177,0.12065000000000001,0.0120625],"type":"VEC3"},{"bufferView":0,"byteOffset":38016,"componentType":5126,"count":66,"max":[0.19812,0.12065000000000001,0.0184125],"min":[0.19177000000000002,-0.12065000000000001,0.0120625],"type":"VEC3"},{"bufferView":0,"byteOffset":38808,"componentType":5126,"count":254,"max":[-0.08406,-0.07390466226998776,0.02],"min":[-0.11406,-0.10389533773001226,0.0120625],"type":"VEC3"},{"bufferView":0,"byteOffset":41856,"componentType":5126,"count":254,"max":[0.11406,-0.07390466226998776,0.02],"min":[0.08406,-0.10389533773001226,0.0120625],"type":"VEC3"},{"bufferView":0,"byteOffset":44904,"componentType":5126,"count":66,"max":[0.19177000000000002,0.127,0.0279375],"min":[-0.19177,0.12065000000000001,0.021587500000000003],"type":"VEC3"},{"bufferView":0,"byteOffset":45696,"componentType":5126,"count":66,"max":[0.19812,0.12065000000000001,0.0279375],"min":[0.19177,-0.12065000000000001,0.021587500000000003],"type":"VEC3"},{"bufferView":0,"byteOffset":46488,"componentType":5126,"count":66,"max":[0.19812,0.127,0.021587500000000003],"min":[0.19177,0.12065000000000001,0.0184125],"type":"VEC3"},{"bufferView":0,"byteOffset":47280,"componentType":5126,"count":592,"max":[0.19812,-0.12065000000000001,0.018412500000000002],"min":[0.19177,-0.127,0.0120625],"type":"VEC3"},{"bufferView":0,"byteOffset":54384,"componentType":5126,"count":592,"max":[0.19812,-0.12065000000000001,0.0279375],"min":[0.19177,-0.127,0.0215875],"type":"VEC3"},{"bufferView":0,"byteOffset":61488,"componentType":5126,"count":4,"max":[0.19812,0.12065000000000001,0.021587500000000003],"min":[0.19812,-0.12065000000000001,0.0184125],"type":"VEC3"},{"bufferView":0,"byteOffset":61536,"componentType":5126,"count":592,"max":[0.19812,0.127,0.018412500000000002],"min":[0.19177,0.12065000000000001,0.0120625],"type":"VEC3"},{"bufferView":0,"byteOffset":68640,"componentType":5126,"count":126,"max":[-0.08406,-0.07390466226998776,0.02],"min":[-0.11406,-0.10389533773001226,0.02],"type":"VEC3"},{"bufferView":0,"byteOffset":70152,"componentType":5126,"count":126,"max":[0.11406,-0.07390466226998776,0.02],"min":[0.08406,-0.10389533773001226,0.02],"type":"VEC3"},{"bufferView":0,"byteOffset":71664,"componentType":5126,"count":592,"max":[0.19812,0.127,0.0279375],"min":[0.19177,0.12065000000000001,0.021587500000000003],"type":"VEC3"},{"bufferView":0,"byteOffset":78768,"componentType":5126,"count":254,"max":[0.014,0.01399564854801143,0.001],"min":[-0.014,-0.01399564854801143,0.0],"type":"VEC3"},{"bufferView":0,"byteOffset":81816,"componentType":5126,"count":126,"max":[0.014,0.01399564854801143,0.001],"min":[-0.014,-0.01399564854801143,0.001],"type":"VEC3"},{"bufferView":0,"byteOffset":83328,"componentType":5126,"count":126,"max":[0.014,0.01399564854801143,0.0],"min":[-0.014,-0.01399564854801143,0.0],"type":"VEC3"},{"bufferView":0,"byteOffset":84840,"componentType":5126,"count":254,"max":[0.011700000000000004,0.011696363429409544,0.001],"min":[-0.011700000000000004,-0.011696363429409558,0.0],"type":"VEC3"},{"bufferView":0,"byteOffset":87888,"componentType":5126,"count":126,"max":[0.011700000000000004,0.011696363429409544,0.001],"min":[-0.011700000000000004,-0.011696363429409558,0.001],"type":"VEC3"},{"bufferView":0,"byteOffset":89400,"componentType":5126,"count":126,"max":[0.011700000000000004,0.011696363429409544,0.0],"min":[-0.011700000000000004,-0.011696363429409558,0.0],"type":"VEC3"},{"bufferView":0,"byteOffset":90912,"componentType":5126,"count":254,"max":[0.11176,-0.07620394738858964,0.02],"min":[0.08635999999999999,-0.10159605261141037,0.006666666666666667],"type":"VEC3"},{"bufferView":0,"byteOffset":93960,"componentType":5126,"count":3044,"max":[0.11176,-0.07620394738858964,0.006666666666666667],"min":[0.08635999999999999,-0.10159605261141037,0.0],"type":"VEC3"},{"bufferView":0,"byteOffset":130488,"componentType":5126,"count":126,"max":[0.11176,-0.07620394738858964,0.02],"min":[0.08635999999999999,-0.10159605261141037,0.02],"type":"VEC3"},{"bufferView":0,"byteOffset":132000,"componentType":5126,"count":126,"max":[0.10509333333333332,-0.08286854193526175,0.0],"min":[0.09302666666666666,-0.09493145806473827,0.0],"type":"VEC3"},{"bufferView":0,"byteOffset":133512,"componentType":5126,"count":254,"max":[-0.08635999999999999,-0.07620394738858964,0.02],"min":[-0.11176,-0.10159605261141037,0.006666666666666667],"type":"VEC3"},{"bufferView":0,"byteOffset":136560,"componentType":5126,"count":3044,"max":[-0.08635999999999999,-0.07620394738858964,0.006666666666666667],"min":[-0.11176,-0.10159605261141037,0.0],"type":"VEC3"},{"bufferView":0,"byteOffset":173088,"componentType":5126,"count":126,"max":[-0.08635999999999999,-0.07620394738858964,0.02],"min":[-0.11176,-0.10159605261141037,0.02],"type":"VEC3"},{"bufferView":0,"byteOffset":174600,"componentType":5126,"count":126,"max":[-0.09302666666666666,-0.08286854193526175,0.0],"min":[-0.10509333333333332,-0.09493145806473827,0.0],"type":"VEC3"},{"bufferView":1,"byteOffset":0,"componentType":5126,"count":4,"type":"VEC3"},{"bufferView":1,"byteOffset":48,"componentType":5126,"count":66,"type":"VEC3"},{"bufferView":1,"byteOffset":840,"componentType":5126,"count":66,"type":"VEC3"},{"bufferView":1,"byteOffset":1632,"componentType":5126,"count":66,"type":"VEC3"},{"bufferView":1,"byteOffset":2424,"componentType":5126,"count":66,"type":"VEC3"},{"bufferView":1,"byteOffset":3216,"componentType":5126,"count":592,"type":"VEC3"},{"bufferView":1,"byteOffset":10320,"componentType":5126,"count":592,"type":"VEC3"},{"bufferView":1,"byteOffset":17424,"componentType":5126,"count":4,"type":"VEC3"},{"bufferView":1,"byteOffset":17472,"componentType":5126,"count":256,"type":"VEC3"},{"bufferView":1,"byteOffset":20544,"componentType":5126,"count":592,"type":"VEC3"},{"bufferView":1,"byteOffset":27648,"componentType":5126,"count":4,"type":"VEC3"},{"bufferView":1,"byteOffset":27696,"componentType":5126,"count":592,"type":"VEC3"},{"bufferView":1,"byteOffset":34800,"componentType":5126,"count":4,"type":"VEC3"},{"bufferView":1,"byteOffset":34848,"componentType":5126,"count":66,"type":"VEC3"},{"bufferView":1,"byteOffset":35640,"componentType":5126,"count":66,"type":"VEC3"},{"bufferView":1,"byteOffset":36432,"componentType":5126,"count":66,"type":"VEC3"},{"bufferView":1,"byteOffset":37224,"componentType":5126,"count":66,"type":"VEC3"},{"bufferView":1,"byteOffset":38016,"componentType":5126,"count":66,"type":"VEC3"},{"bufferView":1,"byteOffset":38808,"componentType":5126,"count":254,"type":"VEC3"},{"bufferView":1,"byteOffset":41856,"componentType":5126,"count":254,"type":"VEC3"},{"bufferView":1,"byteOffset":44904,"componentType":5126,"count":66,"type":"VEC3"},{"bufferView":1,"byteOffset":45696,"componentType":5126,"count":66,"type":"VEC3"},{"bufferView":1,"byteOffset":46488,"componentType":5126,"count":66,"type":"VEC3"},{"bufferView":1,"byteOffset":47280,"componentType":5126,"count":592,"type":"VEC3"},{"bufferView":1,"byteOffset":54384,"componentType":5126,"count":592,"type":"VEC3"},{"bufferView":1,"byteOffset":61488,"componentType":5126,"count":4,"type":"VEC3"},{"bufferView":1,"byteOffset":61536,"componentType":5126,"count":592,"type":"VEC3"},{"bufferView":1,"byteOffset":68640,"componentType":5126,"count":126,"type":"VEC3"},{"bufferView":1,"byteOffset":70152,"componentType":5126,"count":126,"type":"VEC3"},{"bufferView":1,"byteOffset":71664,"componentType":5126,"count":592,"type":"VEC3"},{"bufferView":1,"byteOffset":78768,"componentType":5126,"count":254,"type":"VEC3"},{"bufferView":1,"byteOffset":81816,"componentType":5126,"count":126,"type":"VEC3"},{"bufferView":1,"byteOffset":83328,"componentType":5126,"count":126,"type":"VEC3"},{"bufferView":1,"byteOffset":84840,"componentType":5126,"count":254,"type":"VEC3"},{"bufferView":1,"byteOffset":87888,"componentType":5126,"count":126,"type":"VEC3"},{"bufferView":1,"byteOffset":89400,"componentType":5126,"count":126,"type":"VEC3"},{"bufferView":1,"byteOffset":90912,"componentType":5126,"count":254,"type":"VEC3"},{"bufferView":1,"byteOffset":93960,"componentType":5126,"count":3044,"type":"VEC3"},{"bufferView":1,"byteOffset":130488,"componentType":5126,"count":126,"type":"VEC3"},{"bufferView":1,"byteOffset":132000,"componentType":5126,"count":126,"type":"VEC3"},{"bufferView":1,"byteOffset":133512,"componentType":5126,"count":254,"type":"VEC3"},{"bufferView":1,"byteOffset":136560,"componentType":5126,"count":3044,"type":"VEC3"},{"bufferView":1,"byteOffset":173088,"componentType":5126,"count":126,"type":"VEC3"},{"bufferView":1,"byteOffset":174600,"componentType":5126,"count":126,"type":"VEC3"},{"bufferView":2,"byteOffset":0,"componentType":5123,"count":6,"type":"SCALAR"},{"bufferView":2,"byteOffset":12,"componentType":5123,"count":192,"type":"SCALAR"},{"bufferView":2,"byteOffset":396,"componentType":5123,"count":192,"type":"SCALAR"},{"bufferView":2,"byteOffset":780,"componentType":5123,"count":192,"type":"SCALAR"},{"bufferView":2,"byteOffset":1164,"componentType":5123,"count":192,"type":"SCALAR"},{"bufferView":2,"byteOffset":1548,"componentType":5123,"count":3255,"type":"SCALAR"},{"bufferView":2,"byteOffset":8060,"componentType":5123,"count":3255,"type":"SCALAR"},{"bufferView":2,"byteOffset":14572,"componentType":5123,"count":6,"type":"SCALAR"},{"bufferView":2,"byteOffset":14584,"componentType":5123,"count":774,"type":"SCALAR"},{"bufferView":2,"byteOffset":16132,"componentType":5123,"count":3255,"type":"SCALAR"},{"bufferView":2,"byteOffset":22644,"componentType":5123,"count":6,"type":"SCALAR"},{"bufferView":2,"byteOffset":22656,"componentType":5123,"count":3255,"type":"SCALAR"},{"bufferView":2,"byteOffset":29168,"componentType":5123,"count":6,"type":"SCALAR"},{"bufferView":2,"byteOffset":29180,"componentType":5123,"count":192,"type":"SCALAR"},{"bufferView":2,"byteOffset":29564,"componentType":5123,"count":192,"type":"SCALAR"},{"bufferView":2,"byteOffset":29948,"componentType":5123,"count":192,"type":"SCALAR"},{"bufferView":2,"byteOffset":30332,"componentType":5123,"count":192,"type":"SCALAR"},{"bufferView":2,"byteOffset":30716,"componentType":5123,"count":192,"type":"SCALAR"},{"bufferView":2,"byteOffset":31100,"componentType":5123,"count":756,"type":"SCALAR"},{"bufferView":2,"byteOffset":32612,"componentType":5123,"count":756,"type":"SCALAR"},{"bufferView":2,"byteOffset":34124,"componentType":5123,"count":192,"type":"SCALAR"},{"bufferView":2,"byteOffset":34508,"componentType":5123,"count":192,"type":"SCALAR"},{"bufferView":2,"byteOffset":34892,"componentType":5123,"count":192,"type":"SCALAR"},{"bufferView":2,"byteOffset":35276,"componentType":5123,"count":3255,"type":"SCALAR"},{"bufferView":2,"byteOffset":41788,"componentType":5123,"count":3255,"type":"SCALAR"},{"bufferView":2,"byteOffset":48300,"componentType":5123,"count":6,"type":"SCALAR"},{"bufferView":2,"byteOffset":48312,"componentType":5123,"count":3255,"type":"SCALAR"},{"bufferView":2,"byteOffset":54824,"componentType":5123,"count":372,"type":"SCALAR"},{"bufferView":2,"byteOffset":55568,"componentType":5123,"count":372,"type":"SCALAR"},{"bufferView":2,"byteOffset":56312,"componentType":5123,"count":3255,"type":"SCALAR"},{"bufferView":2,"byteOffset":62824,"componentType":5123,"count":756,"type":"SCALAR"},{"bufferView":2,"byteOffset":64336,"componentType":5123,"count":372,"type":"SCALAR"},{"bufferView":2,"byteOffset":65080,"componentType":5123,"count":372,"type":"SCALAR"},{"bufferView":2,"byteOffset":65824,"componentType":5123,"count":756,"type":"SCALAR"},{"bufferView":2,"byteOffset":67336,"componentType":5123,"count":372,"type":"SCALAR"},{"bufferView":2,"byteOffset":68080,"componentType":5123,"count":372,"type":"SCALAR"},{"bufferView":2,"byteOffset":68824,"componentType":5123,"count":756,"type":"SCALAR"},{"bufferView":2,"byteOffset":70336,"componentType":5123,"count":17310,"type":"SCALAR"},{"bufferView":2,"byteOffset":104956,"componentType":5123,"count":372,"type":"SCALAR"},{"bufferView":2,"byteOffset":105700,"componentType":5123,"count":372,"type":"SCALAR"},{"bufferView":2,"byteOffset":106444,"componentType":5123,"count":756,"type":"SCALAR"},{"bufferView":2,"byteOffset":107956,"componentType":5123,"count":17310,"type":"SCALAR"},{"bufferView":2,"byteOffset":142576,"componentType":5123,"count":372,"type":"SCALAR"},{"bufferView":2,"byteOffset":143320,"componentType":5123,"count":372,"type":"SCALAR"}],"asset":{"generator":"Open CASCADE Technology 7.8 [dev.opencascade.org]","version":"2.0"},"bufferViews":[{"buffer":0,"byteLength":176112,"byteOffset":0,"byteStride":12,"target":34962},{"buffer":0,"byteLength":176112,"byteOffset":176112,"byteStride":12,"target":34962},{"buffer":0,"byteLength":144064,"byteOffset":352224,"target":34963}],"buffers":[{"byteLength":496288,"uri":"workboard01__assembly__workboard_assembly.bin"}],"materials":[{"name":"mat_0","pbrMetallicRoughness":{"baseColorFactor":[0.4000000059604645,0.2862745225429535,0.14509804546833038,1.0]},"doubleSided":true},{"name":"mat_1","pbrMetallicRoughness":{"baseColorFactor":[0.10000000149011612,0.10000000149011612,0.10000000149011612,0.800000011920929],"metallicFactor":0.0},"doubleSided":true,"alphaMode":"BLEND"},{"name":"mat_2","pbrMetallicRoughness":{"baseColorFactor":[0.30000001192092896,0.30000001192092896,0.30000001192092896,1.0]},"doubleSided":true}],"meshes":[{"name":"SOLID","primitives":[{"attributes":{"NORMAL":44,"POSITION":0},"indices":88,"material":0,"mode":4},{"attributes":{"NORMAL":45,"POSITION":1},"indices":89,"material":0,"mode":4},{"attributes":{"NORMAL":46,"POSITION":2},"indices":90,"material":0,"mode":4},{"attributes":{"NORMAL":47,"POSITION":3},"indices":91,"material":0,"mode":4},{"attributes":{"NORMAL":48,"POSITION":4},"indices":92,"material":0,"mode":4},{"attributes":{"NORMAL":49,"POSITION":5},"indices":93,"material":0,"mode":4},{"attributes":{"NORMAL":50,"POSITION":6},"indices":94,"material":0,"mode":4},{"attributes":{"NORMAL":51,"POSITION":7},"indices":95,"material":0,"mode":4},{"attributes":{"NORMAL":52,"POSITION":8},"indices":96,"material":0,"mode":4},{"attributes":{"NORMAL":53,"POSITION":9},"indices":97,"material":0,"mode":4},{"attributes":{"NORMAL":54,"POSITION":10},"indices":98,"material":0,"mode":4},{"attributes":{"NORMAL":55,"POSITION":11},"indices":99,"material":0,"mode":4},{"attributes":{"NORMAL":56,"POSITION":12},"indices":100,"material":0,"mode":4},{"attributes":{"NORMAL":57,"POSITION":13},"indices":101,"material":0,"mode":4},{"attributes":{"NORMAL":58,"POSITION":14},"indices":102,"material":0,"mode":4},{"attributes":{"NORMAL":59,"POSITION":15},"indices":103,"material":0,"mode":4},{"attributes":{"NORMAL":60,"POSITION":16},"indices":104,"material":0,"mode":4},{"attributes":{"NORMAL":61,"POSITION":17},"indices":105,"material":0,"mode":4},{"attributes":{"NORMAL":62,"POSITION":18},"indices":106,"material":0,"mode":4},{"attributes":{"NORMAL":63,"POSITION":19},"indices":107,"material":0,"mode":4},{"attributes":{"NORMAL":64,"POSITION":20},"indices":108,"material":0,"mode":4},{"attributes":{"NORMAL":65,"POSITION":21},"indices":109,"material":0,"mode":4},{"attributes":{"NORMAL":66,"POSITION":22},"indices":110,"material":0,"mode":4},{"attributes":{"NORMAL":67,"POSITION":23},"indices":111,"material":0,"mode":4},{"attributes":{"NORMAL":68,"POSITION":24},"indices":112,"material":0,"mode":4},{"attributes":{"NORMAL":69,"POSITION":25},"indices":113,"material":0,"mode":4},{"attributes":{"NORMAL":70,"POSITION":26},"indices":114,"material":0,"mode":4},{"attributes":{"NORMAL":71,"POSITION":27},"indices":115,"material":0,"mode":4},{"attributes":{"NORMAL":72,"POSITION":28},"indices":116,"material":0,"mode":4},{"attributes":{"NORMAL":73,"POSITION":29},"indices":117,"material":0,"mode":4}]},{"name":"SOLID","primitives":[{"attributes":{"NORMAL":74,"POSITION":30},"indices":118,"material":1,"mode":4},{"attributes":{"NORMAL":75,"POSITION":31},"indices":119,"material":1,"mode":4},{"attributes":{"NORMAL":76,"POSITION":32},"indices":120,"material":1,"mode":4}]},{"name":"SOLID","primitives":[{"attributes":{"NORMAL":74,"POSITION":30},"indices":118,"material":1,"mode":4},{"attributes":{"NORMAL":75,"POSITION":31},"indices":119,"material":1,"mode":4},{"attributes":{"NORMAL":76,"POSITION":32},"indices":120,"material":1,"mode":4}]},{"name":"SOLID","primitives":[{"attributes":{"NORMAL":77,"POSITION":33},"indices":121,"material":1,"mode":4},{"attributes":{"NORMAL":78,"POSITION":34},"indices":122,"material":1,"mode":4},{"attributes":{"NORMAL":79,"POSITION":35},"indices":123,"material":1,"mode":4}]},{"name":"SOLID","primitives":[{"attributes":{"NORMAL":77,"POSITION":33},"indices":121,"material":1,"mode":4},{"attributes":{"NORMAL":78,"POSITION":34},"indices":122,"material":1,"mode":4},{"attributes":{"NORMAL":79,"POSITION":35},"indices":123,"material":1,"mode":4}]},{"name":"SOLID","primitives":[{"attributes":{"NORMAL":80,"POSITION":36},"indices":124,"material":2,"mode":4},{"attributes":{"NORMAL":81,"POSITION":37},"indices":125,"material":2,"mode":4},{"attributes":{"NORMAL":82,"POSITION":38},"indices":126,"material":2,"mode":4},{"attributes":{"NORMAL":83,"POSITION":39},"indices":127,"material":2,"mode":4}]},{"name":"SOLID","primitives":[{"attributes":{"NORMAL":84,"POSITION":40},"indices":128,"material":2,"mode":4},{"attributes":{"NORMAL":85,"POSITION":41},"indices":129,"material":2,"mode":4},{"attributes":{"NORMAL":86,"POSITION":42},"indices":130,"material":2,"mode":4},{"attributes":{"NORMAL":87,"POSITION":43},"indices":131,"material":2,"mode":4}]}],"nodes":[{"children":[1,3,6,9],"rotation":[-0.7071067811865475,0.0,0.0,0.7071067811865475],"name":"=>[0:1:1:2]"},{"children":[2],"name":"=>[0:1:1:3]"},{"mesh":0,"name":"=>[0:1:1:4]"},{"children":[4,5],"name":"=>[0:1:1:5]"},{"translation":[-0.09906,-0.0889,0.02],"mesh":1,"name":"=>[0:1:1:6]"},{"translation":[0.09906,-0.0889,0.02],"mesh":2,"name":"=>[0:1:1:6]"},{"children":[7,8],"name":"=>[0:1:1:7]"},{"translation":[-0.09906,-0.0889,0.019],"mesh":3,"name":"=>[0:1:1:8]"},{"translation":[0.09906,-0.0889,0.019],"mesh":4,"name":"=>[0:1:1:8]"},{"children":[10,11],"name":"=>[0:1:1:9]"},{"mesh":5,"name":"=>[0:1:1:10]"},{"mesh":6,"name":"=>[0:1:1:11]"}],"scene":0,"scenes":[{"nodes":[0]}]}