{"accessors":[{"bufferView":0,"byteOffset":0,"componentType":5126,"count":254,"max":[-0.08506,-0.07490435145198858,-0.007300000000000004],"min":[-0.11306,-0.10289564854801143,-0.03270000000000001],"type":"VEC3"},{"bufferView":0,"byteOffset":3048,"componentType":5126,"count":252,"max":[-0.08406,-0.07390466226998776,-0.007300000000000004],"min":[-0.11406,-0.10389533773001226,-0.007300000000000004],"type":"VEC3"},{"bufferView":0,"byteOffset":6072,"componentType":5126,"count":254,"max":[-0.08406,-0.07390466226998776,-0.007300000000000004],"min":[-0.11406,-0.10389533773001226,-0.0079375],"type":"VEC3"},{"bufferView":0,"byteOffset":9120,"componentType":5126,"count":126,"max":[-0.08506,-0.07490435145198858,-0.03270000000000001],"min":[-0.11306,-0.10289564854801143,-0.03270000000000001],"type":"VEC3"},{"bufferView":0,"byteOffset":10632,"componentType":5126,"count":256,"max":[0.19177000000000002,0.12065000000000001,-0.0079375],"min":[-0.19177,-0.12065000000000001,-0.0079375],"type":"VEC3"},{"bufferView":0,"byteOffset":13704,"componentType":5126,"count":66,"max":[-0.19177,0.12065000000000001,-0.001587500000000002],"min":[-0.19812,-0.12065000000000001,-0.0079375],"type":"VEC3"},{"bufferView":0,"byteOffset":14496,"componentType":5126,"count":66,"max":[0.19177000000000002,-0.12065000000000001,-0.001587500000000002],"min":[-0.19177,-0.127,-0.0079375],"type":"VEC3"},{"bufferView":0,"byteOffset":15288,"componentType":5126,"count":66,"max":[0.19177000000000002,0.127,-0.001587500000000002],"min":[-0.19177,0.12065000000000001,-0.0079375],"type":"VEC3"},{"bufferView":0,"byteOffset":16080,"componentType":5126,"count":66,"max":[0.19812,0.12065000000000001,-0.001587500000000002],"min":[0.19177000000000002,-0.12065000000000001,-0.0079375],"type":"VEC3"},{"bufferView":0,"byteOffset":16872,"componentType":5126,"count":254,"max":[0.11406,-0.07390466226998776,-0.007300000000000004],"min":[0.08406,-0.10389533773001226,-0.0079375],"type":"VEC3"},{"bufferView":0,"byteOffset":19920,"componentType":5126,"count":592,"max":[-0.19177,-0.12065000000000001,-0.0015875000000000004],"min":[-0.19812,-0.127,-0.0079375],"type":"VEC3"},{"bufferView":0,"byteOffset":27024,"componentType":5126,"count":4,"max":[-0.19812,0.12065000000000001,0.001587500000000002],"min":[-0.19812,-0.12065000000000001,-0.001587500000000002],"type":"VEC3"},{"bufferView":0,"byteOffset":27072,"componentType":5126,"count":592,"max":[-0.19177,0.127,-0.0015875000000000004],"min":[-0.19812,0.12065000000000001,-0.0079375],"type":"VEC3"},{"bufferView":0,"byteOffset":34176,"componentType":5126,"count":4,"max":[0.19177000000000002,-0.127,0.001587500000000002],"min":[-0.19177,-0.127,-0.001587500000000002],"type":"VEC3"},{"bufferView":0,"byteOffset":34224,"componentType":5126,"count":592,"max":[0.19812,-0.12065000000000001,-0.0015875000000000004],"min":[0.19177,-0.127,-0.0079375],"type":"VEC3"},{"bufferView":0,"byteOffset":41328,"componentType":5126,"count":4,"max":[0.19177000000000002,0.127,0.001587500000000002],"min":[-0.19177,0.127,-0.001587500000000002],"type":"VEC3"},{"bufferView":0,"byteOffset":41376,"componentType":5126,"count":592,"max":[0.19812,0.127,-0.0015875000000000004],"min":[0.19177,0.12065000000000001,-0.0079375],"type":"VEC3"},{"bufferView":0,"byteOffset":48480,"componentType":5126,"count":4,"max":[0.19812,0.12065000000000001,0.001587500000000002],"min":[0.19812,-0.12065000000000001,-0.001587500000000002],"type":"VEC3"},{"bufferView":0,"byteOffset":48528,"componentType":5126,"count":252,"max":[0.11406,-0.07390466226998776,-0.007300000000000004],"min":[0.08406,-0.10389533773001226,-0.007300000000000004],"type":"VEC3"},{"bufferView":0,"byteOffset":51552,"componentType":5126,"count":66,"max":[-0.19177,-0.12065000000000001,0.001587500000000002],"min":[-0.19812,-0.127,-0.001587500000000002],"type":"VEC3"},{"bufferView":0,"byteOffset":52344,"componentType":5126,"count":66,"max":[-0.19177,0.12065000000000001,0.007937500000000002],"min":[-0.19812,-0.12065000000000001,0.001587500000000002],"type":"VEC3"},{"bufferView":0,"byteOffset":53136,"componentType":5126,"count":66,"max":[-0.19177,0.127,0.001587500000000002],"min":[-0.19812,0.12065000000000001,-0.001587500000000002],"type":"VEC3"},{"bufferView":0,"byteOffset":53928,"componentType":5126,"count":66,"max":[0.19177000000000002,-0.12065000000000001,0.0079375],"min":[-0.19177,-0.127,0.001587500000000002],"type":"VEC3"},{"bufferView":0,"byteOffset":54720,"componentType":5126,"count":66,"max":[0.19812,-0.12065000000000001,0.001587500000000002],"min":[0.19177,-0.127,-0.001587500000000002],"type":"VEC3"},{"bufferView":0,"byteOffset":55512,"componentType":5126,"count":66,"max":[0.19177000000000002,0.127,0.007937500000000002],"min":[-0.19177,0.12065000000000001,0.001587500000000002],"type":"VEC3"},{"bufferView":0,"byteOffset":56304,"componentType":5126,"count":66,"max":[0.19812,0.127,0.001587500000000002],"min":[0.19177,0.12065000000000001,-0.001587500000000002],"type":"VEC3"},{"bufferView":0,"byteOffset":57096,"componentType":5126,"count":66,"max":[0.19812,0.12065000000000001,0.007937500000000002],"min":[0.19177,-0.12065000000000001,0.001587500000000002],"type":"VEC3"},{"bufferView":0,"byteOffset":57888,"componentType":5126,"count":254,"max":[0.11306,-0.07490435145198858,-0.007300000000000004],"min":[0.08506,-0.10289564854801143,-0.03270000000000001],"type":"VEC3"},{"bufferView":0,"byteOffset":60936,"componentType":5126,"count":592,"max":[-0.19177,-0.12065000000000001,0.0079375],"min":[-0.19812,-0.127,0.0015875000000000004],"type":"VEC3"},{"bufferView":0,"byteOffset":68040,"componentType":5126,"count":4,"max":[0.19177000000000002,0.12065000000000001,0.007937500000000002],"min":[-0.19177,-0.12065000000000001,0.0079375],"type":"VEC3"},{"bufferView":0,"byteOffset":68088,"componentType":5126,"count":592,"max":[-0.19177,0.127,0.007937500000000002],"min":[-0.19812,0.12065000000000001,0.001587500000000002],"type":"VEC3"},{"bufferView":0,"byteOffset":75192,"componentType":5126,"count":592,"max":[0.19812,-0.12065000000000001,0.0079375],"min":[0.19177,-0.127,0.0015875000000000004],"type":"VEC3"},{"bufferView":0,"byteOffset":82296,"componentType":5126,"count":592,"max":[0.19812,0.127,0.007937500000000002],"min":[0.19177,0.12065000000000001,0.001587500000000002],"type":"VEC3"},{"bufferView":0,"byteOffset":89400,"componentType":5126,"count":126,"max":[0.11306,-0.07490435145198858,-0.03270000000000001],"min":[0.08506,-0.10289564854801143,-0.03270000000000001],"type":"VEC3"},{"bufferView":1,"byteOffset":0,"componentType":5126,"count":254,"type":"VEC3"},{"bufferView":1,"byteOffset":3048,"componentType":5126,"count":252,"type":"VEC3"},{"bufferView":1,"byteOffset":6072,"componentType":5126,"count":254,"type":"VEC3"},{"bufferView":1,"byteOffset":9120,"componentType":5126,"count":126,"type":"VEC3"},{"bufferView":1,"byteOffset":10632,"componentType":5126,"count":256,"type":"VEC3"},{"bufferView":1,"byteOffset":13704,"componentType":5126,"count":66,"type":"VEC3"},{"bufferView":1,"byteOffset":14496,"componentType":5126,"count":66,"type":"VEC3"},{"bufferView":1,"byteOffset":15288,"componentType":5126,"count":66,"type":"VEC3"},{"bufferView":1,"byteOffset":16080,"componentType":5126,"count":66,"type":"VEC3"},{"bufferView":1,"byteOffset":16872,"componentType":5126,"count":254,"type":"VEC3"},{"bufferView":1,"byteOffset":19920,"componentType":5126,"count":592,"type":"VEC3"},{"bufferView":1,"byteOffset":27024,"componentType":5126,"count":4,"type":"VEC3"},{"bufferView":1,"byteOffset":27072,"componentType":5126,"count":592,"type":"VEC3"},{"bufferView":1,"byteOffset":34176,"componentType":5126,"count":4,"type":"VEC3"},{"bufferView":1,"byteOffset":34224,"componentType":5126,"count":592,"type":"VEC3"},{"bufferView":1,"byteOffset":41328,"componentType":5126,"count":4,"type":"VEC3"},{"bufferView":1,"byteOffset":41376,"componentType":5126,"count":592,"type":"VEC3"},{"bufferView":1,"byteOffset":48480,"componentType":5126,"count":4,"type":"VEC3"},{"bufferView":1,"byteOffset":48528,"componentType":5126,"count":252,"type":"VEC3"},{"bufferView":1,"byteOffset":51552,"componentType":5126,"count":66,"type":"VEC3"},{"bufferView":1,"byteOffset":52344,"componentType":5126,"count":66,"type":"VEC3"},{"bufferView":1,"byteOffset":53136,"componentType":5126,"count":66,"type":"VEC3"},{"bufferView":1,"byteOffset":53928,"componentType":5126,"count":66,"type":"VEC3"},{"bufferView":1,"byteOffset":54720,"componentType":5126,"count":66,"type":"VEC3"},{"bufferView":1,"byteOffset":55512,"componentType":5126,"count":66,"type":"VEC3"},{"bufferView":1,"byteOffset":56304,"componentType":5126,"count":66,"type":"VEC3"},{"bufferView":1,"byteOffset":57096,"componentType":5126,"count":66,"type":"VEC3"},{"bufferView":1,"byteOffset":57888,"componentType":5126,"count":254,"type":"VEC3"},{"bufferView":1,"byteOffset":60936,"componentType":5126,"count":592,"type":"VEC3"},{"bufferView":1,"byteOffset":68040,"componentType":5126,"count":4,"type":"VEC3"},{"bufferView":1,"byteOffset":68088,"componentType":5126,"count":592,"type":"VEC3"},{"bufferView":1,"byteOffset":75192,"componentType":5126,"count":592,"type":"VEC3"},{"bufferView":1,"byteOffset":82296,"componentType":5126,"count":592,"type":"VEC3"},{"bufferView":1,"byteOffset":89400,"componentType":5126,"count":126,"type":"VEC3"},{"bufferView":2,"byteOffset":0,"componentType":5123,"count":756,"type":"SCALAR"},{"bufferView":2,"byteOffset":1512,"componentType":5123,"count":756,"type":"SCALAR"},{"bufferView":2,"byteOffset":3024,"componentType":5123,"count":756,"type":"SCALAR"},{"bufferView":2,"byteOffset":4536,"componentType":5123,"count":372,"type":"SCALAR"},{"bufferView":2,"byteOffset":5280,"componentType":5123,"count":774,"type":"SCALAR"},{"bufferView":2,"byteOffset":6828,"componentType":5123,"count":192,"type":"SCALAR"},{"bufferView":2,"byteOffset":7212,"componentType":5123,"count":192,"type":"SCALAR"},{"bufferView":2,"byteOffset":7596,"componentType":5123,"count":192,"type":"SCALAR"},{"bufferView":2,"byteOffset":7980,"componentType":5123,"count":192,"type":"SCALAR"},{"bufferView":2,"byteOffset":8364,"componentType":5123,"count":756,"type":"SCALAR"},{"bufferView":2,"byteOffset":9876,"componentType":5123,"count":3255,"type":"SCALAR"},{"bufferView":2,"byteOffset":16388,"componentType":5123,"count":6,"type":"SCALAR"},{"bufferView":2,"byteOffset":16400,"componentType":5123,"count":3255,"type":"SCALAR"},{"bufferView":2,"byteOffset":22912,"componentType":5123,"count":6,"type":"SCALAR"},{"bufferView":2,"byteOffset":22924,"componentType":5123,"count":3255,"type":"SCALAR"},{"bufferView":2,"byteOffset":29436,"componentType":5123,"count":6,"type":"SCALAR"},{"bufferView":2,"byteOffset":29448,"componentType":5123,"count":3255,"type":"SCALAR"},{"bufferView":2,"byteOffset":35960,"componentType":5123,"count":6,"type":"SCALAR"},{"bufferView":2,"byteOffset":35972,"componentType":5123,"count":756,"type":"SCALAR"},{"bufferView":2,"byteOffset":37484,"componentType":5123,"count":192,"type":"SCALAR"},{"bufferView":2,"byteOffset":37868,"componentType":5123,"count":192,"type":"SCALAR"},{"bufferView":2,"byteOffset":38252,"componentType":5123,"count":192,"type":"SCALAR"},{"bufferView":2,"byteOffset":38636,"componentType":5123,"count":192,"type":"SCALAR"},{"bufferView":2,"byteOffset":39020,"componentType":5123,"count":192,"type":"SCALAR"},{"bufferView":2,"byteOffset":39404,"componentType":5123,"count":192,"type":"SCALAR"},{"bufferView":2,"byteOffset":39788,"componentType":5123,"count":192,"type":"SCALAR"},{"bufferView":2,"byteOffset":40172,"componentType":5123,"count":192,"type":"SCALAR"},{"bufferView":2,"byteOffset":40556,"componentType":5123,"count":756,"type":"SCALAR"},{"bufferView":2,"byteOffset":42068,"componentType":5123,"count":3255,"type":"SCALAR"},{"bufferView":2,"byteOffset":48580,"componentType":5123,"count":6,"type":"SCALAR"},{"bufferView":2,"byteOffset":48592,"componentType":5123,"count":3255,"type":"SCALAR"},{"bufferView":2,"byteOffset":55104,"componentType":5123,"count":3255,"type":"SCALAR"},{"bufferView":2,"byteOffset":61616,"componentType":5123,"count":3255,"type":"SCALAR"},{"bufferView":2,"byteOffset":68128,"componentType":5123,"count":372,"type":"SCALAR"}],"asset":{"generator":"Open CASCADE Technology 7.8 [dev.opencascade.org]","version":"2.0"},"bufferViews":[{"buffer":0,"byteLength":90912,"byteOffset":0,"byteStride":12,"target":34962},{"buffer":0,"byteLength":90912,"byteOffset":90912,"byteStride":12,"target":34962},{"buffer":0,"byteLength":68872,"byteOffset":181824,"target":34963}],"buffers":[{"byteLength":250696,"uri":"_3d.bin"}],"meshes":[{"name":"COMPOUND","primitives":[{"attributes":{"NORMAL":34,"POSITION":0},"indices":68,"mode":4},{"attributes":{"NORMAL":35,"POSITION":1},"indices":69,"mode":4},{"attributes":{"NORMAL":36,"POSITION":2},"indices":70,"mode":4},{"attributes":{"NORMAL":37,"POSITION":3},"indices":71,"mode":4},{"attributes":{"NORMAL":38,"POSITION":4},"indices":72,"mode":4},{"attributes":{"NORMAL":39,"POSITION":5},"indices":73,"mode":4},{"attributes":{"NORMAL":40,"POSITION":6},"indices":74,"mode":4},{"attributes":{"NORMAL":41,"POSITION":7},"indices":75,"mode":4},{"attributes":{"NORMAL":42,"POSITION":8},"indices":76,"mode":4},{"attributes":{"NORMAL":43,"POSITION":9},"indices":77,"mode":4},{"attributes":{"NORMAL":44,"POSITION":10},"indices":78,"mode":4},{"attributes":{"NORMAL":45,"POSITION":11},"indices":79,"mode":4},{"attributes":{"NORMAL":46,"POSITION":12},"indices":80,"mode":4},{"attributes":{"NORMAL":47,"POSITION":13},"indices":81,"mode":4},{"attributes":{"NORMAL":48,"POSITION":14},"indices":82,"mode":4},{"attributes":{"NORMAL":49,"POSITION":15},"indices":83,"mode":4},{"attributes":{"NORMAL":50,"POSITION":16},"indices":84,"mode":4},{"attributes":{"NORMAL":51,"POSITION":17},"indices":85,"mode":4},{"attributes":{"NORMAL":52,"POSITION":18},"indices":86,"mode":4},{"attributes":{"NORMAL":53,"POSITION":19},"indices":87,"mode":4},{"attributes":{"NORMAL":54,"POSITION":20},"indices":88,"mode":4},{"attributes":{"NORMAL":55,"POSITION":21},"indices":89,"mode":4},{"attributes":{"NORMAL":56,"POSITION":22},"indices":90,"mode":4},{"attributes":{"NORMAL":57,"POSITION":23},"indices":91,"mode":4},{"attributes":{"NORMAL":58,"POSITION":24},"indices":92,"mode":4},{"attributes":{"NORMAL":59,"POSITION":25},"indices":93,"mode":4},{"attributes":{"NORMAL":60,"POSITION":26},"indices":94,"mode":4},{"attributes":{"NORMAL":61,"POSITION":27},"indices":95,"mode":4},{"attributes":{"NORMAL":62,"POSITION":28},"indices":96,"mode":4},{"attributes":{"NORMAL":63,"POSITION":29},"indices":97,"mode":4},{"attributes":{"NORMAL":64,"POSITION":30},"indices":98,"mode":4},{"attributes":{"NORMAL":65,"POSITION":31},"indices":99,"mode":4},{"attributes":{"NORMAL":66,"POSITION":32},"indices":100,"mode":4},{"attributes":{"NORMAL":67,"POSITION":33},"indices":101,"mode":4}]}],"nodes":[{"rotation":[-0.7071067811865475,0.0,0.0,0.7071067811865475],"mesh":0,"name":"=>[0:1:1:2]"}],"scene":0,"scenes":[{"nodes":[0]}]}