{"accessors":[{"bufferView":0,"byteOffset":0,"componentType":5126,"count":254,"max":[-0.08506,-0.07490435145198858,0.021],"min":[-0.11306,-0.10289564854801143,0.02],"type":"VEC3"},{"bufferView":0,"byteOffset":3048,"componentType":5126,"count":126,"max":[-0.08506,-0.07490435145198858,0.021],"min":[-0.11306,-0.10289564854801143,0.021],"type":"VEC3"},{"bufferView":0,"byteOffset":4560,"componentType":5126,"count":126,"max":[-0.08506,-0.07490435145198858,0.02],"min":[-0.11306,-0.10289564854801143,0.02],"type":"VEC3"},{"bufferView":0,"byteOffset":6072,"componentType":5126,"count":254,"max":[0.11306,-0.07490435145198858,0.021],"min":[0.08506,-0.10289564854801143,0.02],"type":"VEC3"},{"bufferView":0,"byteOffset":9120,"componentType":5126,"count":126,"max":[0.11306,-0.07490435145198858,0.021],"min":[0.08506,-0.10289564854801143,0.021],"type":"VEC3"},{"bufferView":0,"byteOffset":10632,"componentType":5126,"count":126,"max":[0.11306,-0.07490435145198858,0.02],"min":[0.08506,-0.10289564854801143,0.02],"type":"VEC3"},{"bufferView":1,"byteOffset":0,"componentType":5126,"count":254,"type":"VEC3"},{"bufferView":1,"byteOffset":3048,"componentType":5126,"count":126,"type":"VEC3"},{"bufferView":1,"byteOffset":4560,"componentType":5126,"count":126,"type":"VEC3"},{"bufferView":1,"byteOffset":6072,"componentType":5126,"count":254,"type":"VEC3"},{"bufferView":1,"byteOffset":9120,"componentType":5126,"count":126,"type":"VEC3"},{"bufferView":1,"byteOffset":10632,"componentType":5126,"count":126,"type":"VEC3"},{"bufferView":2,"byteOffset":0,"componentType":5123,"count":756,"type":"SCALAR"},{"bufferView":2,"byteOffset":1512,"componentType":5123,"count":372,"type":"SCALAR"},{"bufferView":2,"byteOffset":2256,"componentType":5123,"count":372,"type":"SCALAR"},{"bufferView":2,"byteOffset":3000,"componentType":5123,"count":756,"type":"SCALAR"},{"bufferView":2,"byteOffset":4512,"componentType":5123,"count":372,"type":"SCALAR"},{"bufferView":2,"byteOffset":5256,"componentType":5123,"count":372,"type":"SCALAR"}],"asset":{"generator":"Open CASCADE Technology 7.8 [dev.opencascade.org]","version":"2.0"},"bufferViews":[{"buffer":0,"byteLength":12144,"byteOffset":0,"byteStride":12,"target":34962},{"buffer":0,"byteLength":12144,"byteOffset":12144,"byteStride":12,"target":34962},{"buffer":0,"byteLength":6000,"byteOffset":24288,"target":34963}],"buffers":[{"byteLength":30288,"uri":"workboard01__part__workboard_magnetic_discs.bin"}],"materials":[{"name":"mat_0","pbrMetallicRoughness":{"baseColorFactor":[0.10000000149011612,0.10000000149011612,0.10000000149011612,0.800000011920929],"metallicFactor":0.0},"doubleSided":true,"alphaMode":"BLEND"}],"meshes":[{"name":"workboard.magnets","primitives":[{"attributes":{"NORMAL":6,"POSITION":0},"indices":12,"material":0,"mode":4},{"attributes":{"NORMAL":7,"POSITION":1},"indices":13,"material":0,"mode":4},{"attributes":{"NORMAL":8,"POSITION":2},"indices":14,"material":0,"mode":4},{"attributes":{"NORMAL":9,"POSITION":3},"indices":15,"material":0,"mode":4},{"attributes":{"NORMAL":10,"POSITION":4},"indices":16,"material":0,"mode":4},{"attributes":{"NORMAL":11,"POSITION":5},"indices":17,"material":0,"mode":4}]}],"nodes":[{"rotation":[-0.7071067811865475,0.0,0.0,0.7071067811865475],"mesh":0,"name":"=>[0:1:1:2]"}],"scene":0,"scenes":[{"nodes":[0]}]}