{"accessors":[{"bufferView":0,"byteOffset":0,"componentType":5126,"count":4,"max":[0.19811999999999996,0.127,0.0],"min":[-0.19811999999999996,-0.127,0.0],"type":"VEC3"},{"bufferView":0,"byteOffset":48,"componentType":5126,"count":126,"max":[0.11406,-0.07390466226998776,-0.0025],"min":[0.08406,-0.10389533773001226,-0.0025],"type":"VEC3"},{"bufferView":0,"byteOffset":1560,"componentType":5126,"count":126,"max":[-0.08406,-0.07390466226998776,-0.0025],"min":[-0.11406,-0.10389533773001226,-0.0025],"type":"VEC3"},{"bufferView":1,"byteOffset":0,"componentType":5126,"count":4,"type":"VEC3"},{"bufferView":1,"byteOffset":48,"componentType":5126,"count":126,"type":"VEC3"},{"bufferView":1,"byteOffset":1560,"componentType":5126,"count":126,"type":"VEC3"},{"bufferView":2,"byteOffset":0,"componentType":5123,"count":6,"type":"SCALAR"},{"bufferView":2,"byteOffset":12,"componentType":5123,"count":372,"type":"SCALAR"},{"bufferView":2,"byteOffset":756,"componentType":5123,"count":372,"type":"SCALAR"}],"asset":{"generator":"Open CASCADE Technology 7.8 [dev.opencascade.org]","version":"2.0"},"bufferViews":[{"buffer":0,"byteLength":3072,"byteOffset":0,"byteStride":12,"target":34962},{"buffer":0,"byteLength":3072,"byteOffset":3072,"byteStride":12,"target":34962},{"buffer":0,"byteLength":1500,"byteOffset":6144,"target":34963}],"buffers":[{"byteLength":7644,"uri":"workboard01_2d.bin"}],"meshes":[{"name":"FACE","primitives":[{"attributes":{"NORMAL":3,"POSITION":0},"indices":6,"mode":4}]},{"name":"FACE","primitives":[{"attributes":{"NORMAL":4,"POSITION":1},"indices":7,"mode":4}]},{"name":"FACE","primitives":[{"attributes":{"NORMAL":5,"POSITION":2},"indices":8,"mode":4}]}],"nodes":[{"children":[1,3,5],"rotation":[-0.7071067811865475,0.0,0.0,0.7071067811865475],"name":"=>[0:1:1:2]"},{"children":[2],"name":"=>[0:1:1:3]"},{"rotation":[0.0,0.0,0.4226182617406994,0.9063077870366499],"mesh":0,"name":"=>[0:1:1:4]"},{"children":[4],"name":"=>[0:1:1:5]"},{"mesh":1,"name":"=>[0:1:1:6]"},{"children":[6],"name":"=>[0:1:1:7]"},{"mesh":2,"name":"=>[0:1:1:8]"}],"scene":0,"scenes":[{"nodes":[0]}]}