{"accessors":[{"bufferView":0,"byteOffset":0,"componentType":5126,"count":4,"max":[-0.19812,0.12065000000000001,0.021587500000000003],"min":[-0.19812,-0.12065000000000001,0.0184125],"type":"VEC3"},{"bufferView":0,"byteOffset":48,"componentType":5126,"count":66,"max":[-0.19177,-0.12065000000000001,0.021587500000000003],"min":[-0.19812,-0.127,0.0184125],"type":"VEC3"},{"bufferView":0,"byteOffset":840,"componentType":5126,"count":66,"max":[-0.19177,0.12065000000000001,0.0184125],"min":[-0.19812,-0.12065000000000001,0.0120625],"type":"VEC3"},{"bufferView":0,"byteOffset":1632,"componentType":5126,"count":66,"max":[-0.19177,0.12065000000000001,0.0279375],"min":[-0.19812,-0.12065000000000001,0.021587500000000003],"type":"VEC3"},{"bufferView":0,"byteOffset":2424,"componentType":5126,"count":66,"max":[-0.19177,0.127,0.021587500000000003],"min":[-0.19812,0.12065000000000001,0.0184125],"type":"VEC3"},{"bufferView":0,"byteOffset":3216,"componentType":5126,"count":592,"max":[-0.19177,-0.12065000000000001,0.018412500000000002],"min":[-0.19812,-0.127,0.0120625],"type":"VEC3"},{"bufferView":0,"byteOffset":10320,"componentType":5126,"count":592,"max":[-0.19177,-0.12065000000000001,0.0279375],"min":[-0.19812,-0.127,0.0215875],"type":"VEC3"},{"bufferView":0,"byteOffset":17424,"componentType":5126,"count":4,"max":[0.19177000000000002,-0.127,0.021587500000000003],"min":[-0.19177,-0.127,0.0184125],"type":"VEC3"},{"bufferView":0,"byteOffset":17472,"componentType":5126,"count":256,"max":[0.19177000000000002,0.12065000000000001,0.0120625],"min":[-0.19177,-0.12065000000000001,0.0120625],"type":"VEC3"},{"bufferView":0,"byteOffset":20544,"componentType":5126,"count":592,"max":[-0.19177,0.127,0.018412500000000002],"min":[-0.19812,0.12065000000000001,0.0120625],"type":"VEC3"},{"bufferView":0,"byteOffset":27648,"componentType":5126,"count":4,"max":[0.19177000000000002,0.12065000000000001,0.0279375],"min":[-0.19177,-0.12065000000000001,0.0279375],"type":"VEC3"},{"bufferView":0,"byteOffset":27696,"componentType":5126,"count":592,"max":[-0.19177,0.127,0.0279375],"min":[-0.19812,0.12065000000000001,0.021587500000000003],"type":"VEC3"},{"bufferView":0,"byteOffset":34800,"componentType":5126,"count":4,"max":[0.19177000000000002,0.127,0.021587500000000003],"min":[-0.19177,0.127,0.0184125],"type":"VEC3"},{"bufferView":0,"byteOffset":34848,"componentType":5126,"count":66,"max":[0.19177000000000002,-0.12065000000000001,0.0184125],"min":[-0.19177,-0.127,0.0120625],"type":"VEC3"},{"bufferView":0,"byteOffset":35640,"componentType":5126,"count":66,"max":[0.19177000000000002,-0.12065000000000001,0.0279375],"min":[-0.19177,-0.127,0.021587500000000003],"type":"VEC3"},{"bufferView":0,"byteOffset":36432,"componentType":5126,"count":66,"max":[0.19812,-0.12065000000000001,0.021587500000000003],"min":[0.19177,-0.127,0.0184125],"type":"VEC3"},{"bufferView":0,"byteOffset":37224,"componentType":5126,"count":66,"max":[0.19177000000000002,0.127,0.0184125],"min":[-0.19177,0.12065000000000001,0.0120625],"type":"VEC3"},{"bufferView":0,"byteOffset":38016,"componentType":5126,"count":66,"max":[0.19812,0.12065000000000001,0.0184125],"min":[0.19177000000000002,-0.12065000000000001,0.0120625],"type":"VEC3"},{"bufferView":0,"byteOffset":38808,"componentType":5126,"count":254,"max":[-0.08406,-0.07390466226998776,0.02],"min":[-0.11406,-0.10389533773001226,0.0120625],"type":"VEC3"},{"bufferView":0,"byteOffset":41856,"componentType":5126,"count":254,"max":[0.11406,-0.07390466226998776,0.02],"min":[0.08406,-0.10389533773001226,0.0120625],"type":"VEC3"},{"bufferView":0,"byteOffset":44904,"componentType":5126,"count":66,"max":[0.19177000000000002,0.127,0.0279375],"min":[-0.19177,0.12065000000000001,0.021587500000000003],"type":"VEC3"},{"bufferView":0,"byteOffset":45696,"componentType":5126,"count":66,"max":[0.19812,0.12065000000000001,0.0279375],"min":[0.19177,-0.12065000000000001,0.021587500000000003],"type":"VEC3"},{"bufferView":0,"byteOffset":46488,"componentType":5126,"count":66,"max":[0.19812,0.127,0.021587500000000003],"min":[0.19177,0.12065000000000001,0.0184125],"type":"VEC3"},{"bufferView":0,"byteOffset":47280,"componentType":5126,"count":592,"max":[0.19812,-0.12065000000000001,0.018412500000000002],"min":[0.19177,-0.127,0.0120625],"type":"VEC3"},{"bufferView":0,"byteOffset":54384,"componentType":5126,"count":592,"max":[0.19812,-0.12065000000000001,0.0279375],"min":[0.19177,-0.127,0.0215875],"type":"VEC3"},{"bufferView":0,"byteOffset":61488,"componentType":5126,"count":4,"max":[0.19812,0.12065000000000001,0.021587500000000003],"min":[0.19812,-0.12065000000000001,0.0184125],"type":"VEC3"},{"bufferView":0,"byteOffset":61536,"componentType":5126,"count":592,"max":[0.19812,0.127,0.018412500000000002],"min":[0.19177,0.12065000000000001,0.0120625],"type":"VEC3"},{"bufferView":0,"byteOffset":68640,"componentType":5126,"count":126,"max":[-0.08406,-0.07390466226998776,0.02],"min":[-0.11406,-0.10389533773001226,0.02],"type":"VEC3"},{"bufferView":0,"byteOffset":70152,"componentType":5126,"count":126,"max":[0.11406,-0.07390466226998776,0.02],"min":[0.08406,-0.10389533773001226,0.02],"type":"VEC3"},{"bufferView":0,"byteOffset":71664,"componentType":5126,"count":592,"max":[0.19812,0.127,0.0279375],"min":[0.19177,0.12065000000000001,0.021587500000000003],"type":"VEC3"},{"bufferView":1,"byteOffset":0,"componentType":5126,"count":4,"type":"VEC3"},{"bufferView":1,"byteOffset":48,"componentType":5126,"count":66,"type":"VEC3"},{"bufferView":1,"byteOffset":840,"componentType":5126,"count":66,"type":"VEC3"},{"bufferView":1,"byteOffset":1632,"componentType":5126,"count":66,"type":"VEC3"},{"bufferView":1,"byteOffset":2424,"componentType":5126,"count":66,"type":"VEC3"},{"bufferView":1,"byteOffset":3216,"componentType":5126,"count":592,"type":"VEC3"},{"bufferView":1,"byteOffset":10320,"componentType":5126,"count":592,"type":"VEC3"},{"bufferView":1,"byteOffset":17424,"componentType":5126,"count":4,"type":"VEC3"},{"bufferView":1,"byteOffset":17472,"componentType":5126,"count":256,"type":"VEC3"},{"bufferView":1,"byteOffset":20544,"componentType":5126,"count":592,"type":"VEC3"},{"bufferView":1,"byteOffset":27648,"componentType":5126,"count":4,"type":"VEC3"},{"bufferView":1,"byteOffset":27696,"componentType":5126,"count":592,"type":"VEC3"},{"bufferView":1,"byteOffset":34800,"componentType":5126,"count":4,"type":"VEC3"},{"bufferView":1,"byteOffset":34848,"componentType":5126,"count":66,"type":"VEC3"},{"bufferView":1,"byteOffset":35640,"componentType":5126,"count":66,"type":"VEC3"},{"bufferView":1,"byteOffset":36432,"componentType":5126,"count":66,"type":"VEC3"},{"bufferView":1,"byteOffset":37224,"componentType":5126,"count":66,"type":"VEC3"},{"bufferView":1,"byteOffset":38016,"componentType":5126,"count":66,"type":"VEC3"},{"bufferView":1,"byteOffset":38808,"componentType":5126,"count":254,"type":"VEC3"},{"bufferView":1,"byteOffset":41856,"componentType":5126,"count":254,"type":"VEC3"},{"bufferView":1,"byteOffset":44904,"componentType":5126,"count":66,"type":"VEC3"},{"bufferView":1,"byteOffset":45696,"componentType":5126,"count":66,"type":"VEC3"},{"bufferView":1,"byteOffset":46488,"componentType":5126,"count":66,"type":"VEC3"},{"bufferView":1,"byteOffset":47280,"componentType":5126,"count":592,"type":"VEC3"},{"bufferView":1,"byteOffset":54384,"componentType":5126,"count":592,"type":"VEC3"},{"bufferView":1,"byteOffset":61488,"componentType":5126,"count":4,"type":"VEC3"},{"bufferView":1,"byteOffset":61536,"componentType":5126,"count":592,"type":"VEC3"},{"bufferView":1,"byteOffset":68640,"componentType":5126,"count":126,"type":"VEC3"},{"bufferView":1,"byteOffset":70152,"componentType":5126,"count":126,"type":"VEC3"},{"bufferView":1,"byteOffset":71664,"componentType":5126,"count":592,"type":"VEC3"},{"bufferView":2,"byteOffset":0,"componentType":5123,"count":6,"type":"SCALAR"},{"bufferView":2,"byteOffset":12,"componentType":5123,"count":192,"type":"SCALAR"},{"bufferView":2,"byteOffset":396,"componentType":5123,"count":192,"type":"SCALAR"},{"bufferView":2,"byteOffset":780,"componentType":5123,"count":192,"type":"SCALAR"},{"bufferView":2,"byteOffset":1164,"componentType":5123,"count":192,"type":"SCALAR"},{"bufferView":2,"byteOffset":1548,"componentType":5123,"count":3255,"type":"SCALAR"},{"bufferView":2,"byteOffset":8060,"componentType":5123,"count":3255,"type":"SCALAR"},{"bufferView":2,"byteOffset":14572,"componentType":5123,"count":6,"type":"SCALAR"},{"bufferView":2,"byteOffset":14584,"componentType":5123,"count":774,"type":"SCALAR"},{"bufferView":2,"byteOffset":16132,"componentType":5123,"count":3255,"type":"SCALAR"},{"bufferView":2,"byteOffset":22644,"componentType":5123,"count":6,"type":"SCALAR"},{"bufferView":2,"byteOffset":22656,"componentType":5123,"count":3255,"type":"SCALAR"},{"bufferView":2,"byteOffset":29168,"componentType":5123,"count":6,"type":"SCALAR"},{"bufferView":2,"byteOffset":29180,"componentType":5123,"count":192,"type":"SCALAR"},{"bufferView":2,"byteOffset":29564,"componentType":5123,"count":192,"type":"SCALAR"},{"bufferView":2,"byteOffset":29948,"componentType":5123,"count":192,"type":"SCALAR"},{"bufferView":2,"byteOffset":30332,"componentType":5123,"count":192,"type":"SCALAR"},{"bufferView":2,"byteOffset":30716,"componentType":5123,"count":192,"type":"SCALAR"},{"bufferView":2,"byteOffset":31100,"componentType":5123,"count":756,"type":"SCALAR"},{"bufferView":2,"byteOffset":32612,"componentType":5123,"count":756,"type":"SCALAR"},{"bufferView":2,"byteOffset":34124,"componentType":5123,"count":192,"type":"SCALAR"},{"bufferView":2,"byteOffset":34508,"componentType":5123,"count":192,"type":"SCALAR"},{"bufferView":2,"byteOffset":34892,"componentType":5123,"count":192,"type":"SCALAR"},{"bufferView":2,"byteOffset":35276,"componentType":5123,"count":3255,"type":"SCALAR"},{"bufferView":2,"byteOffset":41788,"componentType":5123,"count":3255,"type":"SCALAR"},{"bufferView":2,"byteOffset":48300,"componentType":5123,"count":6,"type":"SCALAR"},{"bufferView":2,"byteOffset":48312,"componentType":5123,"count":3255,"type":"SCALAR"},{"bufferView":2,"byteOffset":54824,"componentType":5123,"count":372,"type":"SCALAR"},{"bufferView":2,"byteOffset":55568,"componentType":5123,"count":372,"type":"SCALAR"},{"bufferView":2,"byteOffset":56312,"componentType":5123,"count":3255,"type":"SCALAR"}],"asset":{"generator":"Open CASCADE Technology 7.8 [dev.opencascade.org]","version":"2.0"},"bufferViews":[{"buffer":0,"byteLength":78768,"byteOffset":0,"byteStride":12,"target":34962},{"buffer":0,"byteLength":78768,"byteOffset":78768,"byteStride":12,"target":34962},{"buffer":0,"byteLength":62824,"byteOffset":157536,"target":34963}],"buffers":[{"byteLength":220360,"uri":"workboard01__part__workboard.bin"}],"materials":[{"name":"mat_0","pbrMetallicRoughness":{"baseColorFactor":[0.4000000059604645,0.2862745225429535,0.14509804546833038,1.0]},"doubleSided":true}],"meshes":[{"name":"workboard","primitives":[{"attributes":{"NORMAL":30,"POSITION":0},"indices":60,"material":0,"mode":4},{"attributes":{"NORMAL":31,"POSITION":1},"indices":61,"material":0,"mode":4},{"attributes":{"NORMAL":32,"POSITION":2},"indices":62,"material":0,"mode":4},{"attributes":{"NORMAL":33,"POSITION":3},"indices":63,"material":0,"mode":4},{"attributes":{"NORMAL":34,"POSITION":4},"indices":64,"material":0,"mode":4},{"attributes":{"NORMAL":35,"POSITION":5},"indices":65,"material":0,"mode":4},{"attributes":{"NORMAL":36,"POSITION":6},"indices":66,"material":0,"mode":4},{"attributes":{"NORMAL":37,"POSITION":7},"indices":67,"material":0,"mode":4},{"attributes":{"NORMAL":38,"POSITION":8},"indices":68,"material":0,"mode":4},{"attributes":{"NORMAL":39,"POSITION":9},"indices":69,"material":0,"mode":4},{"attributes":{"NORMAL":40,"POSITION":10},"indices":70,"material":0,"mode":4},{"attributes":{"NORMAL":41,"POSITION":11},"indices":71,"material":0,"mode":4},{"attributes":{"NORMAL":42,"POSITION":12},"indices":72,"material":0,"mode":4},{"attributes":{"NORMAL":43,"POSITION":13},"indices":73,"material":0,"mode":4},{"attributes":{"NORMAL":44,"POSITION":14},"indices":74,"material":0,"mode":4},{"attributes":{"NORMAL":45,"POSITION":15},"indices":75,"material":0,"mode":4},{"attributes":{"NORMAL":46,"POSITION":16},"indices":76,"material":0,"mode":4},{"attributes":{"NORMAL":47,"POSITION":17},"indices":77,"material":0,"mode":4},{"attributes":{"NORMAL":48,"POSITION":18},"indices":78,"material":0,"mode":4},{"attributes":{"NORMAL":49,"POSITION":19},"indices":79,"material":0,"mode":4},{"attributes":{"NORMAL":50,"POSITION":20},"indices":80,"material":0,"mode":4},{"attributes":{"NORMAL":51,"POSITION":21},"indices":81,"material":0,"mode":4},{"attributes":{"NORMAL":52,"POSITION":22},"indices":82,"material":0,"mode":4},{"attributes":{"NORMAL":53,"POSITION":23},"indices":83,"material":0,"mode":4},{"attributes":{"NORMAL":54,"POSITION":24},"indices":84,"material":0,"mode":4},{"attributes":{"NORMAL":55,"POSITION":25},"indices":85,"material":0,"mode":4},{"attributes":{"NORMAL":56,"POSITION":26},"indices":86,"material":0,"mode":4},{"attributes":{"NORMAL":57,"POSITION":27},"indices":87,"material":0,"mode":4},{"attributes":{"NORMAL":58,"POSITION":28},"indices":88,"material":0,"mode":4},{"attributes":{"NORMAL":59,"POSITION":29},"indices":89,"material":0,"mode":4}]}],"nodes":[{"rotation":[-0.7071067811865475,0.0,0.0,0.7071067811865475],"mesh":0,"name":"=>[0:1:1:2]"}],"scene":0,"scenes":[{"nodes":[0]}]}